<svg id="Layer_1" data-name="Layer 1" xmlns="http://www.w3.org/2000/svg" viewBox="0 0 512 512"><defs><style>.cls-1{fill:#ffd38d;}.cls-2{fill:#6d4135;}.cls-3{opacity:0.1;}</style></defs><title>volume-flat</title><path class="cls-1" d="M234.67,106.67V405.33a21.26,21.26,0,0,1-12.05,19.2,22.25,22.25,0,0,1-9.28,2.13A21.19,21.19,0,0,1,200,422l-93.33-80.64H64a64.05,64.05,0,0,1-64-64V234.67a64.05,64.05,0,0,1,64-64h42.67L200,90a21.33,21.33,0,0,1,34.67,16.64Z"/><path class="cls-2" d="M303.25,320.32a21.33,21.33,0,0,1-15.66-35.81,42.23,42.23,0,0,0,0-57,21.33,21.33,0,1,1,31.33-29,84.89,84.89,0,0,1,0,114.94A21.26,21.26,0,0,1,303.25,320.32Z"/><path class="cls-2" d="M363.62,380.7a21.33,21.33,0,0,1-15.39-36.1,127.61,127.61,0,0,0,0-177.19A21.33,21.33,0,0,1,379,137.87a170.26,170.26,0,0,1,0,236.27A21.28,21.28,0,0,1,363.62,380.7Z"/><path class="cls-2" d="M424.1,441.18a21.34,21.34,0,0,1-15.28-36.23,213.59,213.59,0,0,0,0-297.9,21.34,21.34,0,0,1,30.55-29.79,256.28,256.28,0,0,1,0,357.48A21.3,21.3,0,0,1,424.1,441.18Z"/><g class="cls-3"><path d="M234.67,106.67V405.33a21.26,21.26,0,0,1-12.05,19.2,22.25,22.25,0,0,1-9.28,2.13A21.19,21.19,0,0,1,200,422l-93.33-80.64V170.67L200,90a21.33,21.33,0,0,1,34.67,16.64Z"/></g></svg>